# xmcd
#
# Track frame offsets:
#	150
#	19410
#	58055
#	81308
#	104742
#	118912
#	138689
#	154496
#	170246
#
# Disc length: 3016 seconds
#
# Revision: 1
# Processed by: cddbd v1.5.2PL0 Copyright (c) Steve Scherf et al.
# Submitted via: audiograbber 1.83.01
#
DISCID=8f0bc609
DTITLE=Chicago Blues Reunion - Barry Goldberg, Harvey Mandel, Mike Bloomfield, 
DTITLE=Charlie Musselwhite
DYEAR=2006
DGENRE=Blues
TTITLE0=Sweet Home Chicago
TTITLE1=Mess Ada Blues
TTITLE2=Big Boss Man
TTITLE3=Low Down Funk
TTITLE4=I'm Loosing You
TTITLE5=Lost Love
TTITLE6=Hoochie Coochie Man
TTITLE7=You Got My Cryin'
TTITLE8=I Got To Love My Woman
EXTD=
EXTT0=
EXTT1=
EXTT2=
EXTT3=
EXTT4=
EXTT5=
EXTT6=
EXTT7=
EXTT8=
PLAYORDER=
